<?xml version="1.0" encoding="UTF-8"?>
<svg width="80px" height="80px" viewBox="0 0 80 80" version="1.1" xmlns="http://www.w3.org/2000/svg" xmlns:xlink="http://www.w3.org/1999/xlink">
    <!-- Generator: Sketch 64 (93537) - https://sketch.com -->
    <title>DISCUSSION</title>
    <desc>Created with Sketch.</desc>
    <g id="Page-4" stroke="none" stroke-width="1" fill="none" fill-rule="evenodd">
        <g id="ICONS" transform="translate(-388.000000, -122.000000)">
            <g id="DISCUSSION" transform="translate(388.000000, 122.000000)">
                <circle id="Oval" stroke="#F49B06" stroke-width="2" cx="40" cy="40" r="39"></circle>
                <g id="svg" transform="translate(20.000000, 23.000000)" fill="#F49B06" fill-rule="nonzero">
                    <path d="M24.4729186,6.90135747 L6.54237557,6.90135747 C6.29800831,6.90135747 6.0999095,7.09945627 6.0999095,7.34382353 C6.0999095,7.58819079 6.29800831,7.78628959 6.54237557,7.78628959 L24.4729186,7.78628959 C24.7172858,7.78628959 24.9153846,7.58819079 24.9153846,7.34382353 C24.9153846,7.09945627 24.7172858,6.90135747 24.4729186,6.90135747 L24.4729186,6.90135747 Z" id="Path"></path>
                    <path d="M24.4729186,11.9938914 L21.8978959,11.9938914 C21.6616519,12.0047168 21.4756837,12.1994018 21.4756837,12.4358937 C21.4756837,12.6723856 21.6616519,12.8670705 21.8978959,12.8778959 L24.4729186,12.8778959 C24.6356613,12.8853533 24.7893372,12.8027771 24.8729379,12.6629495 C24.9565386,12.5231219 24.9565386,12.3486654 24.8729379,12.2088378 C24.7893372,12.0690102 24.6356613,11.9864341 24.4729186,11.9938914 Z" id="Path"></path>
                    <path d="M18.463914,12.4354299 C18.4634025,12.1914249 18.2654534,11.9938909 18.021448,11.9938914 L6.54237557,11.9938914 C6.37963277,11.9864341 6.22595693,12.0690102 6.14235622,12.2088378 C6.0587555,12.3486654 6.0587555,12.5231219 6.14235622,12.6629495 C6.22595693,12.8027771 6.37963277,12.8853533 6.54237557,12.8778959 L18.021448,12.8778959 C18.2658152,12.8778959 18.463914,12.6797971 18.463914,12.4354299 Z" id="Path"></path>
                    <path d="M24.4729186,17.0854977 L13.4177602,17.0854977 C13.2550174,17.0780404 13.1013415,17.1606166 13.0177408,17.3004441 C12.9341401,17.4402717 12.9341401,17.6147283 13.0177408,17.7545559 C13.1013415,17.8943834 13.2550174,17.9769596 13.4177602,17.9695023 L24.4729186,17.9695023 C24.6356613,17.9769596 24.7893372,17.8943834 24.8729379,17.7545559 C24.9565386,17.6147283 24.9565386,17.4402717 24.8729379,17.3004441 C24.7893372,17.1606166 24.6356613,17.0780404 24.4729186,17.0854977 Z" id="Path"></path>
                    <path d="M9.70271493,17.0854977 L6.54237557,17.0854977 C6.37963277,17.0780404 6.22595693,17.1606166 6.14235622,17.3004441 C6.0587555,17.4402717 6.0587555,17.6147283 6.14235622,17.7545559 C6.22595693,17.8943834 6.37963277,17.9769596 6.54237557,17.9695023 L9.70271493,17.9695023 C9.93895892,17.9586769 10.1249272,17.7639919 10.1249272,17.5275 C10.1249272,17.2910081 9.93895892,17.0963231 9.70271493,17.0854977 Z" id="Path"></path>
                    <path d="M35.8712896,5.7891629 L30.9280995,5.7891629 C30.8471594,2.57660712 28.2217175,0.0132840337 25.0081448,0.0092760181 L6.00714932,0.0092760181 C2.73548516,0.0128571218 0.0846013113,2.6649861 0.0825565611,5.93665158 L0.0825565611,18.9379186 C0.0861001011,22.0600915 2.50951312,24.6449302 5.62497738,24.8495249 L6.59988688,31.260181 C6.62631566,31.4453434 6.76631787,31.5938868 6.94959276,31.6312217 C6.97833461,31.6367111 7.00752605,31.639506 7.03678733,31.6395701 C7.19105818,31.6394208 7.3341134,31.5589303 7.41432127,31.4271493 L11.4095023,24.8597285 L13.748914,24.8597285 C14.2734141,27.158848 16.3135297,28.7930164 18.6716968,28.8029638 L32.9298643,28.8029638 L37.0790271,33.4214932 C37.1628723,33.5145314 37.2821543,33.5680543 37.4073982,33.5680543 C37.4595757,33.5680543 37.511338,33.5587692 37.5604525,33.5411538 C37.730255,33.478351 37.8448198,33.3186212 37.8498643,33.1376471 L37.9760181,28.3447285 C39.7761667,27.5298341 40.9290224,25.7327891 40.9193597,23.75681 L40.9193597,10.8353167 C40.9162296,8.04895091 38.6576564,5.79120775 35.8712896,5.7891629 Z M11.156267,23.9775792 C11.0017133,23.9775867 10.8583156,24.0580722 10.7778054,24.19 L7.29095023,29.920724 L6.44404977,24.3551131 C6.41108546,24.1392258 6.2255387,23.9796792 6.00714932,23.9794344 C3.22494247,23.9763681 0.970139444,21.72198 0.966561086,18.9397738 L0.966561086,5.93665158 C0.968605058,3.15320799 3.22370728,0.896860772 6.00714932,0.893280543 L25.0081448,0.893280543 C27.7914364,0.896861565 30.0462728,3.15335808 30.0478054,5.93665158 L30.0478054,18.9379186 C30.0447381,21.7199747 27.790201,23.9745119 25.0081448,23.9775792 L11.156267,23.9775792 Z M40.0335024,23.7586652 C40.0429325,25.4784829 38.9874304,27.0248045 37.3823529,27.6425339 C37.217503,27.7075452 37.107792,27.8651634 37.1040724,28.0423303 L36.9992534,32.0106109 L33.4604525,28.0701584 C33.376182,27.9771687 33.2566468,27.9239671 33.1311538,27.9235973 L18.6670588,27.9235973 C16.7950744,27.9149869 15.1567845,26.6635365 14.6561086,24.8597285 L25.0081448,24.8597285 C28.2779997,24.8556399 30.9277214,22.2059182 30.93181,18.9360633 L30.93181,6.67873303 L35.8712896,6.67873303 C38.1687715,6.68077791 40.0308819,8.54247331 40.0335024,10.8399548 L40.0335024,23.7586652 Z" id="Shape"></path>
                </g>
            </g>
        </g>
    </g>
</svg>