<?xml version="1.0" encoding="UTF-8"?>
<svg width="80px" height="80px" viewBox="0 0 80 80" version="1.1" xmlns="http://www.w3.org/2000/svg" xmlns:xlink="http://www.w3.org/1999/xlink">
    <!-- Generator: Sketch 64 (93537) - https://sketch.com -->
    <title>DOCUMENT</title>
    <desc>Created with Sketch.</desc>
    <g id="Page-4" stroke="none" stroke-width="1" fill="none" fill-rule="evenodd">
        <g id="ICONS" transform="translate(-282.000000, -122.000000)">
            <g id="DOCUMENT" transform="translate(282.000000, 122.000000)">
                <circle id="Oval" stroke="#F49B06" stroke-width="2" cx="40" cy="40" r="39"></circle>
                <g id="svg" transform="translate(25.000000, 19.000000)" fill="#F49B06" fill-rule="nonzero">
                    <path d="M26.7391304,41 L3.56521739,41 C1.59632609,41 0,39.4036739 0,37.4347826 L0,3.56521739 C0,1.59632609 1.59632609,0 3.56521739,0 L20.4759348,0 C20.4777174,0 20.4803913,0 20.4821739,0 L20.5,0 L20.5,0 C20.7852174,0 21.0285435,0.1435 21.1916522,0.352065217 L29.9522826,9.11269565 C30.1617391,9.27580435 30.3043478,9.51913043 30.3043478,9.80434783 L30.3043478,9.80434783 L30.3043478,9.82306522 C30.3043478,9.82484783 30.3043478,9.82573913 30.3043478,9.82752174 L30.3043478,37.4347826 C30.3043478,39.4036739 28.7080217,41 26.7391304,41 Z M21.3913043,3.0135 L21.3913043,8.91304348 L27.2908478,8.91304348 L21.3913043,3.0135 Z M28.5217391,10.6956522 L20.5,10.6956522 C20.0071087,10.6956522 19.6086957,10.2963478 19.6086957,9.80434783 L19.6086957,1.7826087 L3.56521739,1.7826087 C2.58121739,1.7826087 1.7826087,2.58121739 1.7826087,3.56521739 L1.7826087,37.4347826 C1.7826087,38.4187826 2.58121739,39.2173913 3.56521739,39.2173913 L26.7391304,39.2173913 C27.7231304,39.2173913 28.5217391,38.4187826 28.5217391,37.4347826 L28.5217391,10.6956522 Z M23.173913,33.8695652 L7.13043478,33.8695652 C6.63754348,33.8695652 6.23913043,33.4711522 6.23913043,32.9782609 C6.23913043,32.4862609 6.63754348,32.0869565 7.13043478,32.0869565 L23.173913,32.0869565 C23.6668043,32.0869565 24.0652174,32.4862609 24.0652174,32.9782609 C24.0652174,33.4711522 23.6668043,33.8695652 23.173913,33.8695652 Z M23.173913,26.7391304 L7.13043478,26.7391304 C6.63754348,26.7391304 6.23913043,26.3407174 6.23913043,25.8478261 C6.23913043,25.3558261 6.63754348,24.9565217 7.13043478,24.9565217 L23.173913,24.9565217 C23.6668043,24.9565217 24.0652174,25.3558261 24.0652174,25.8478261 C24.0652174,26.3407174 23.6668043,26.7391304 23.173913,26.7391304 Z M23.173913,19.6086957 L7.13043478,19.6086957 C6.63754348,19.6086957 6.23913043,19.2102826 6.23913043,18.7173913 C6.23913043,18.2253913 6.63754348,17.826087 7.13043478,17.826087 L23.173913,17.826087 C23.6668043,17.826087 24.0652174,18.2253913 24.0652174,18.7173913 C24.0652174,19.2102826 23.6668043,19.6086957 23.173913,19.6086957 Z" id="Shape"></path>
                </g>
            </g>
        </g>
    </g>
</svg>