<?xml version="1.0" encoding="UTF-8"?>
<svg width="512px" height="512px" viewBox="0 0 512 512" version="1.1" xmlns="http://www.w3.org/2000/svg" xmlns:xlink="http://www.w3.org/1999/xlink">
    <!-- Generator: Sketch 64 (93537) - https://sketch.com -->
    <title>Lunanch</title>
    <desc>Created with Sketch.</desc>
    <g id="Lunanch" stroke="none" stroke-width="1" fill="none" fill-rule="evenodd">
        <circle id="Oval" fill="#D8D8D8" cx="256" cy="256" r="256"></circle>
        <g id="rocket" transform="translate(26.000000, 61.000000)" fill="#FFFFFF" fill-rule="nonzero">
            <path d="M265.607,229.705 L265.607,222.824 L265.607,125.314 L265.607,58.292 L234.142,0.686 L203.054,58.292 L203.054,125.314 L203.054,222.824 L203.054,229.705 L265.607,229.705 L265.607,229.705 Z M281.579,146.986 L271.786,134.381 L271.786,219.66 L281.579,219.66 L281.579,146.986 Z M196.877,219.66 L196.877,134.405 L187.108,146.986 L187.108,219.66 L196.877,219.66 Z M219.101,146.686 C217.394,146.686 216.013,145.304 216.013,143.596 C216.013,141.889 217.394,140.508 219.101,140.508 L249.586,140.508 C251.294,140.508 252.675,141.889 252.675,143.596 C252.675,145.304 251.294,146.686 249.586,146.686 L219.101,146.686 Z M219.101,160.772 C217.394,160.772 216.013,159.366 216.013,157.683 C216.013,155.976 217.394,154.595 219.101,154.595 L249.586,154.595 C251.294,154.595 252.675,155.976 252.675,157.683 C252.675,159.366 251.294,160.772 249.586,160.772 L219.101,160.772 Z M266.136,324.05 C266.136,325.757 264.754,327.138 263.047,327.138 C261.338,327.138 259.957,325.757 259.957,324.05 L259.957,288.693 C259.957,286.985 261.338,285.604 263.047,285.604 C264.754,285.604 266.136,286.985 266.136,288.693 L266.136,324.05 Z M237.433,329.123 C237.433,330.83 236.052,332.211 234.343,332.211 C232.636,332.211 231.255,330.83 231.255,329.123 L231.255,278.697 C231.255,276.99 232.636,275.609 234.343,275.609 C236.052,275.609 237.433,276.99 237.433,278.697 L237.433,329.123 Z M223.069,318.977 C223.069,320.685 221.688,322.066 219.981,322.066 C218.274,322.066 216.891,320.685 216.891,318.977 L216.891,268.553 C216.891,266.845 218.274,265.464 219.981,265.464 C221.688,265.464 223.069,266.845 223.069,268.553 L223.069,318.977 Z M208.705,298.711 C208.705,300.42 207.324,301.801 205.641,301.801 C203.933,301.801 202.553,300.42 202.553,298.711 L202.553,248.287 C202.553,246.58 203.934,245.199 205.641,245.199 C207.324,245.199 208.705,246.58 208.705,248.287 L208.705,298.711 Z M231.255,259.236 C231.255,257.528 232.636,256.147 234.343,256.147 C236.052,256.147 237.433,257.528 237.433,259.236 L237.433,271.138 C237.433,272.846 236.052,274.228 234.343,274.228 C232.636,274.228 231.255,272.846 231.255,271.138 L231.255,259.236 Z M259.957,259.236 C259.957,257.528 261.338,256.147 263.047,256.147 C264.754,256.147 266.136,257.528 266.136,259.236 L266.136,278.045 C266.136,279.727 264.754,281.133 263.047,281.133 C261.338,281.133 259.957,279.727 259.957,278.045 L259.957,259.236 Z M419.745,232.039 L395.838,232.039 C393.552,232.039 391.469,232.969 389.961,234.501 C388.454,236.008 387.525,238.092 387.525,240.352 C387.525,242.663 388.454,244.747 389.961,246.253 C391.442,247.734 393.502,248.664 395.738,248.69 L395.762,248.69 L395.837,248.69 L395.912,248.69 L448.371,248.69 C451.559,248.69 454.498,250.02 456.581,252.105 C458.692,254.214 459.998,257.127 459.998,260.341 C459.998,263.555 458.692,266.469 456.581,268.578 C454.472,270.686 451.56,271.992 448.371,271.992 L382.703,271.992 C380.995,271.992 379.614,270.611 379.614,268.904 C379.614,267.196 380.995,265.814 382.703,265.814 L448.371,265.814 C449.851,265.814 451.232,265.187 452.212,264.208 C453.218,263.229 453.846,261.848 453.846,260.341 C453.846,258.834 453.218,257.479 452.212,256.474 C451.233,255.495 449.852,254.867 448.371,254.867 L395.912,254.867 L395.837,254.867 L395.762,254.867 C391.819,254.843 388.202,253.21 385.591,250.624 C382.98,247.987 381.347,244.346 381.347,240.378 C381.347,236.386 382.98,232.744 385.591,230.132 C388.229,227.496 391.843,225.863 395.837,225.863 L419.744,225.863 L419.819,225.863 L419.892,225.863 L419.918,225.863 L419.968,225.863 C421.424,225.813 422.732,225.21 423.684,224.281 C424.69,223.276 425.291,221.895 425.291,220.389 C425.291,218.881 424.663,217.526 423.684,216.521 C422.68,215.542 421.325,214.915 419.819,214.915 L323.69,214.915 C322.007,214.915 320.626,213.533 320.626,211.826 C320.626,210.118 322.008,208.737 323.69,208.737 L419.819,208.737 C423.032,208.737 425.945,210.068 428.053,212.152 C430.164,214.261 431.47,217.2 431.47,220.389 C431.47,223.577 430.164,226.491 428.053,228.6 C425.971,230.684 423.107,231.991 419.994,232.039 L419.968,232.039 L419.918,232.039 L419.818,232.039 L419.745,232.039 L419.745,232.039 Z M99.117,254.866 L75.21,254.866 C71.243,254.866 67.602,253.234 64.99,250.623 C62.353,247.986 60.721,244.345 60.721,240.377 C60.721,236.385 62.353,232.743 64.966,230.131 L65.166,229.955 C67.752,227.444 71.269,225.888 75.135,225.862 L75.21,225.862 L75.312,225.862 L127.744,225.862 C129.251,225.862 130.608,225.234 131.612,224.256 C132.591,223.276 133.219,221.895 133.219,220.389 C133.219,218.881 132.591,217.5 131.612,216.521 C130.608,215.542 129.252,214.915 127.744,214.915 L62.078,214.915 C60.37,214.915 58.99,213.533 58.99,211.826 C58.99,210.118 60.371,208.737 62.078,208.737 L127.744,208.737 C130.934,208.737 133.871,210.068 135.956,212.152 C138.065,214.287 139.397,217.2 139.397,220.389 C139.397,223.603 138.065,226.516 135.956,228.625 C133.871,230.734 130.934,232.039 127.744,232.039 L75.312,232.039 L75.21,232.039 L75.135,232.039 L75.11,232.039 C72.925,232.064 70.941,232.943 69.485,234.35 L69.336,234.501 C67.829,236.008 66.899,238.092 66.899,240.377 C66.899,242.637 67.829,244.746 69.336,246.253 C70.842,247.76 72.951,248.69 75.211,248.69 L99.118,248.69 L99.194,248.69 L99.294,248.69 L99.345,248.69 L99.369,248.715 C102.484,248.739 105.346,250.045 107.406,252.129 C109.54,254.238 110.845,257.151 110.845,260.341 C110.845,263.555 109.539,266.469 107.43,268.578 C105.321,270.686 102.408,271.992 99.194,271.992 L3.09,271.992 C1.382,271.992 0.002,270.611 0.002,268.904 C0.002,267.196 1.383,265.814 3.09,265.814 L99.193,265.814 C100.7,265.814 102.081,265.212 103.06,264.208 C104.064,263.229 104.667,261.848 104.667,260.341 C104.667,258.834 104.063,257.453 103.084,256.474 C102.105,255.52 100.799,254.917 99.343,254.867 L99.292,254.867 L99.268,254.867 L99.193,254.867 L99.117,254.867 L99.117,254.866 Z M144.017,131.367 L124.857,131.367 C121.492,131.367 118.428,129.986 116.219,127.751 C113.983,125.541 112.602,122.478 112.602,119.112 C112.602,115.746 113.983,112.683 116.219,110.473 C118.404,108.263 121.392,106.908 124.706,106.857 L124.706,106.857 L124.782,106.857 L124.857,106.857 L124.933,106.857 L167.019,106.857 C168.049,106.857 169.003,106.43 169.681,105.753 C170.385,105.05 170.786,104.121 170.786,103.066 C170.786,102.037 170.384,101.082 169.707,100.404 C169.003,99.701 168.048,99.299 167.019,99.299 L114.31,99.299 C112.602,99.299 111.222,97.918 111.222,96.21 C111.222,94.503 112.603,93.121 114.31,93.121 L167.019,93.121 C169.732,93.121 172.218,94.226 174.026,96.035 C175.859,97.868 176.964,100.353 176.964,103.066 C176.964,105.802 175.86,108.289 174.051,110.097 C172.243,111.905 169.733,113.035 167.02,113.035 L124.934,113.035 L124.858,113.035 L124.783,113.035 L124.783,113.035 C123.151,113.06 121.644,113.738 120.565,114.793 C119.46,115.923 118.78,117.43 118.78,119.112 C118.78,120.769 119.484,122.301 120.589,123.406 C121.668,124.486 123.2,125.189 124.858,125.189 L144.018,125.189 L144.118,125.189 L144.194,125.189 L144.245,125.189 L144.269,125.189 C146.931,125.239 149.367,126.344 151.125,128.102 C152.932,129.91 154.063,132.421 154.063,135.133 C154.063,137.77 153.033,140.155 151.35,141.963 L151.15,142.164 C149.343,143.972 146.856,145.102 144.119,145.102 L66.973,145.102 C65.265,145.102 63.885,143.721 63.885,142.014 C63.885,140.306 65.266,138.925 66.973,138.925 L144.117,138.925 C145.147,138.925 146.075,138.498 146.779,137.82 L146.904,137.695 C147.508,137.017 147.885,136.113 147.885,135.133 C147.885,134.103 147.457,133.15 146.804,132.471 C146.127,131.793 145.197,131.392 144.218,131.367 L144.194,131.367 L144.169,131.367 L144.118,131.367 L144.017,131.367 L144.017,131.367 Z M74.306,378.016 C72.599,378.016 71.218,376.633 71.218,374.926 C71.218,373.218 72.599,371.837 74.306,371.837 L260.008,371.837 C261.715,371.837 263.096,373.218 263.096,374.926 C263.096,376.633 261.715,378.016 260.008,378.016 L74.306,378.016 Z M183.066,389.314 C181.358,389.314 179.978,387.933 179.978,386.225 C179.978,384.518 181.359,383.137 183.066,383.137 L311.563,383.137 C313.27,383.137 314.651,384.518 314.651,386.225 C314.651,387.933 313.27,389.314 311.563,389.314 L183.066,389.314 Z M324.722,389.314 C323.014,389.314 321.633,387.933 321.633,386.225 C321.633,384.518 323.014,383.137 324.722,383.137 L340.793,383.137 C342.5,383.137 343.881,384.518 343.881,386.225 C343.881,387.933 342.5,389.314 340.793,389.314 L324.722,389.314 Z M67,388.963 C65.292,388.963 63.91,387.582 63.91,385.875 C63.91,384.167 65.293,382.786 67,382.786 L127.895,382.786 C129.578,382.786 130.983,384.167 130.983,385.875 C130.983,387.582 129.578,388.963 127.895,388.963 L67,388.963 Z M196.576,288.768 C198.108,289.497 199.941,288.819 200.67,287.286 C201.398,285.755 200.719,283.922 199.187,283.219 C196.551,281.963 193.714,280.984 190.801,280.331 C187.912,279.703 184.924,279.352 181.936,279.352 C180.153,279.352 178.32,279.477 176.488,279.728 C175.18,279.905 173.875,280.156 172.57,280.457 C171.289,279.629 169.908,278.951 168.451,278.448 L168.251,278.373 C166.393,277.77 164.433,277.443 162.399,277.443 C157.226,277.443 152.555,279.528 149.191,282.918 C145.801,286.283 143.716,290.98 143.716,296.127 C143.716,297.584 143.892,299.015 144.194,300.397 C144.42,301.3 144.695,302.18 145.022,303.034 C143.967,305.369 143.088,307.83 142.46,310.391 C142.009,312.248 141.683,314.158 141.507,316.092 L141.205,316.066 C139.873,315.941 138.594,315.891 137.413,315.891 C135.102,315.891 132.792,316.092 130.533,316.468 C128.723,316.77 126.941,317.221 125.209,317.748 C124.154,317.271 123.075,316.844 121.97,316.568 C120.413,316.14 118.78,315.915 117.123,315.915 C111.95,315.915 107.279,318.024 103.889,321.39 C100.525,324.78 98.414,329.452 98.414,334.599 C98.414,336.005 98.591,337.386 98.891,338.743 C99.093,339.647 99.369,340.526 99.695,341.379 C98.842,343.539 98.139,345.799 97.637,348.135 C97.084,350.872 96.783,353.658 96.783,356.523 L96.809,357.376 L87.065,357.376 C85.382,357.376 83.977,358.757 83.977,360.466 C83.977,362.173 85.382,363.555 87.065,363.555 L385.669,363.555 C387.377,363.555 388.758,362.173 388.758,360.466 C388.758,358.757 387.377,357.376 385.669,357.376 L373.641,357.376 L373.665,356.523 C373.665,353.659 373.365,350.873 372.812,348.135 C372.31,345.799 371.607,343.539 370.751,341.379 C371.077,340.526 371.355,339.648 371.555,338.743 C371.857,337.387 372.033,336.006 372.033,334.599 C372.033,329.452 369.924,324.78 366.558,321.39 C363.167,318.025 358.498,315.915 353.326,315.915 C351.668,315.915 350.035,316.141 348.478,316.568 C347.373,316.843 346.267,317.271 345.24,317.748 C343.506,317.221 341.723,316.769 339.889,316.468 C337.656,316.092 335.344,315.891 333.035,315.891 C331.854,315.891 330.574,315.941 329.244,316.066 L328.941,316.092 C328.74,314.157 328.439,312.248 327.987,310.391 C327.359,307.829 326.481,305.369 325.425,303.034 C325.753,302.18 326.029,301.301 326.228,300.397 C326.554,299.015 326.732,297.584 326.732,296.127 C326.732,290.98 324.648,286.283 321.257,282.918 C317.892,279.528 313.22,277.443 308.047,277.443 C306.013,277.443 304.03,277.77 302.196,278.373 L301.997,278.448 C300.54,278.951 299.157,279.629 297.878,280.457 C296.571,280.156 295.266,279.905 293.96,279.728 C292.126,279.477 290.294,279.352 288.511,279.352 C285.523,279.352 282.534,279.704 279.647,280.331 C276.734,280.983 273.896,281.963 271.259,283.219 C269.727,283.922 269.049,285.755 269.778,287.286 C270.507,288.819 272.341,289.497 273.872,288.768 C276.106,287.713 278.518,286.884 280.977,286.332 C283.363,285.805 285.874,285.527 288.511,285.527 C290.118,285.527 291.675,285.629 293.157,285.829 C294.689,286.055 296.22,286.356 297.678,286.758 C298.632,287.035 299.636,286.783 300.364,286.232 C301.446,285.403 302.676,284.725 303.981,284.273 L304.131,284.223 C305.337,283.821 306.667,283.619 308.048,283.619 C311.514,283.619 314.629,285.025 316.913,287.285 C319.173,289.546 320.578,292.684 320.578,296.125 C320.578,297.129 320.454,298.109 320.252,298.988 C320.027,299.941 319.675,300.871 319.273,301.724 C318.822,302.603 318.846,303.632 319.273,304.461 C320.454,306.772 321.382,309.258 322.01,311.819 C322.614,314.331 322.94,316.966 322.964,319.653 C323.215,358.25 132.34,377.887 148.437,311.819 C149.065,309.257 149.996,306.771 151.175,304.461 C151.577,303.632 151.628,302.603 151.175,301.724 C150.773,300.87 150.422,299.941 150.196,298.988 C149.996,298.109 149.87,297.129 149.87,296.125 C149.87,292.685 151.277,289.546 153.536,287.285 C155.823,285.025 158.935,283.619 162.401,283.619 C163.782,283.619 165.114,283.82 166.319,284.223 L166.444,284.273 C167.776,284.725 169.006,285.403 170.085,286.232 C170.813,286.784 171.818,287.036 172.773,286.758 C174.23,286.357 175.735,286.055 177.292,285.829 C178.775,285.629 180.331,285.527 181.938,285.527 C184.576,285.527 187.086,285.804 189.471,286.332 C191.931,286.884 194.315,287.713 196.576,288.768 Z M208.529,245.199 L248.608,245.199 C246.95,245.248 245.62,246.604 245.62,248.287 L245.62,298.711 C245.62,300.42 247.001,301.801 248.683,301.801 C250.39,301.801 251.771,300.42 251.771,298.711 L251.771,248.287 C251.771,246.604 250.441,245.248 248.783,245.199 L260.16,245.199 L260.16,235.883 L208.53,235.883 L208.53,245.199 L208.529,245.199 Z" id="Shape"></path>
        </g>
    </g>
</svg>