<?xml version="1.0" encoding="UTF-8"?>
<svg width="80px" height="80px" viewBox="0 0 80 80" version="1.1" xmlns="http://www.w3.org/2000/svg" xmlns:xlink="http://www.w3.org/1999/xlink">
    <!-- Generator: Sketch 64 (93537) - https://sketch.com -->
    <title>GUIDE Copy</title>
    <desc>Created with Sketch.</desc>
    <g id="Page-4" stroke="none" stroke-width="1" fill="none" fill-rule="evenodd">
        <g id="ICONS" transform="translate(-176.000000, -122.000000)">
            <g id="GUIDE-Copy" transform="translate(176.000000, 122.000000)">
                <circle id="Oval" stroke="#F49B06" stroke-width="2" cx="40" cy="40" r="39"></circle>
                <g id="svg" transform="translate(23.000000, 19.000000)" fill="#F49B06" fill-rule="nonzero">
                    <path d="M32.195122,0 L6.43902439,0 C2.88854634,0 0,2.88511373 0,6.43137255 L0,35.7745098 C0,38.6558451 2.3469439,41 5.23170732,41 L32.195122,41 C32.6395756,41 33,40.6400843 33,40.1960784 C33,39.987702 33,1.72023137 33,0.803921569 C33,0.359915686 32.6395756,0 32.195122,0 Z M1.6097561,6.43137255 C1.6097561,4.0456549 3.35320244,2.06012941 5.63414634,1.67609608 L5.63414634,30.5490196 C5.4654439,30.5794882 3.40197805,30.2886294 1.6097561,32.0091824 L1.6097561,6.43137255 Z M31.3902439,34.9705882 L4.02439024,34.9705882 C3.57993659,34.9705882 3.2195122,35.3305039 3.2195122,35.7745098 C3.2195122,36.2185157 3.57993659,36.5784314 4.02439024,36.5784314 L31.3902439,36.5784314 L31.3902439,39.3921569 L5.23170732,39.3921569 C3.23456341,39.3921569 1.6097561,37.7692804 1.6097561,35.7745098 C1.6097561,33.7797392 3.23456341,32.1568627 5.23170732,32.1568627 C6.39419268,32.1568627 30.2433732,32.1568627 31.3902439,32.1568627 L31.3902439,34.9705882 Z M31.3902439,23.310349 L23.7655537,30.5490196 L7.24390244,30.5490196 L7.24390244,1.60784314 L23.7443854,1.60784314 L31.3902439,8.86661176 L31.3902439,23.310349 Z" id="Shape"></path>
                    <path d="M11,16 C11,20.4112 14.58872,24 19,24 C23.41128,24 27,20.4112 27,16 C27,11.5888 23.41128,8 19,8 C14.58872,8 11,11.5888 11,16 Z M18.20088,11.19952 C18.63928,11.19952 18.99464,11.55488 18.99464,11.99328 C18.99464,12.43168 18.63928,12.78704 18.20088,12.78704 C17.76248,12.78704 17.40712,12.43168 17.40712,11.99328 C17.40712,11.55488 17.76248,11.19952 18.20088,11.19952 Z M19.8,15.2 L19.8,19.2 L20.6,19.2 C21.04176,19.2 21.4,19.55816 21.4,20 C21.4,20.44184 21.04176,20.8 20.6,20.8 L17.4,20.8 C16.95824,20.8 16.6,20.44184 16.6,20 C16.6,19.55816 16.95824,19.2 17.4,19.2 L18.2,19.2 L18.2,16 L17.4,16 C16.95824,16 16.6,15.64184 16.6,15.2 C16.6,14.75816 16.95824,14.4 17.4,14.4 L19,14.4 C19.44176,14.4 19.8,14.75816 19.8,15.2 Z" id="Shape"></path>
                </g>
            </g>
        </g>
    </g>
</svg>